<svg width="227" height="72" viewBox="0 0 227 72" fill="none" xmlns="http://www.w3.org/2000/svg">
<rect width="227" height="72" fill="#E5E5E5"/>
<g id="Desktop - 1" clip-path="url(#clip0_0_1)">
<rect width="1920" height="12217.3" transform="translate(-219 -11751)" fill="white"/>
<g id="Frame 190">
<g id="Frame 172">
<g id="Frame 171">
<g id="Frame 164">
<g id="Group 16">
<path id="Vector" d="M1701 -194.853C1701 -64.8938 1701 396.172 1701 526.165C1055.01 526.165 409.012 526.165 -236.981 526.165C-236.981 456.132 -239 49.8042 -239 -20.2288C-237.814 -21.5175 -234.338 -16.9728 -232.543 -17.0746C-226.383 -25.8585 -204.743 -21.2042 -191.055 -22.4251C-173.199 -24.0191 -153.896 -28.4813 -136.045 -28.4813C-121.882 -30.1431 -108.823 -31.7985 -94.6608 -33.5281C-75.0092 -35.9361 -55.1967 -38.08 -35.6129 -41.0984C-8.43958 -45.3376 18.6032 -49.6037 45.641 -54.7248C93.7873 -63.8477 141.197 -74.0854 188.971 -85.0058C233.966 -95.3157 278.431 -104.641 323.156 -116.037C359.443 -125.295 395.561 -135.13 431.747 -144.694C434.492 -145.406 437 -146.095 439.947 -146.932C464.647 -153.953 489.584 -160.261 514.284 -167.281C518.214 -168.4 520.755 -170.367 522.382 -174.03C525.024 -180.033 528.684 -185.527 531.597 -191.394C532.648 -193.497 533.8 -196.04 536.51 -195.939C539.56 -195.837 540.203 -192.852 541.051 -190.546C542.27 -187.223 543.456 -183.899 544.405 -180.507C545.455 -176.777 547.522 -175.963 551.215 -176.98C568.698 -181.864 586.215 -186.578 603.732 -191.224C648.05 -202.993 692.367 -214.727 736.922 -225.546C787.339 -237.789 837.958 -249.218 888.883 -259.053C923.646 -265.768 958.578 -271.635 993.646 -276.519C1016.75 -279.741 1039.89 -282.488 1063.14 -284.556C1078.18 -285.879 1093.19 -287.371 1108.3 -287.982C1115.49 -288.253 1122.67 -289.474 1129.89 -288.457C1132.22 -287.643 1133.1 -285.71 1133.68 -283.505C1133.99 -282.42 1134.12 -280.996 1135.61 -280.928C1136.76 -280.894 1137.17 -282.115 1137.61 -282.963C1141.17 -289.474 1145.64 -295.307 1150.59 -300.801C1151.94 -302.328 1153.23 -304.057 1155.57 -303.582C1157.94 -303.108 1159.36 -301.581 1159.43 -299.004C1154.72 -291.136 1148.93 -284.014 1144.42 -276.01C1139.95 -268.074 1139.75 -268.176 1146.11 -261.257C1146.86 -260.816 1147.64 -260.444 1148.32 -259.901C1148.83 -259.562 1149.3 -259.189 1149.81 -258.85C1150.28 -258.544 1150.76 -258.205 1151.23 -257.866C1151.71 -257.595 1152.18 -257.289 1152.65 -257.018C1152.99 -256.882 1153.33 -256.713 1153.67 -256.577C1154.21 -256.374 1154.72 -256.17 1155.23 -255.967C1156.14 -255.628 1157.02 -255.255 1157.94 -254.949C1158.52 -254.78 1159.06 -254.61 1159.63 -254.441C1160.24 -254.305 1160.82 -254.135 1161.4 -253.966C1161.84 -253.898 1162.24 -253.796 1162.65 -253.695C1163.29 -253.559 1163.97 -253.491 1164.61 -253.355C1167.63 -252.779 1170.65 -252.779 1173.63 -253.491C1174.27 -253.695 1174.95 -253.83 1175.63 -253.932C1176.27 -254.102 1176.91 -254.203 1177.56 -254.339C1178.37 -254.508 1179.18 -254.712 1179.96 -255.017C1180.91 -255.356 1181.86 -255.695 1182.81 -256.001C1183.32 -256.204 1183.86 -256.374 1184.4 -256.577C1184.71 -256.747 1185.08 -256.849 1185.38 -256.984C1185.86 -257.188 1186.33 -257.391 1186.81 -257.662C1187.08 -257.866 1187.38 -258.036 1187.69 -258.239C1188.13 -258.578 1188.57 -258.883 1189.01 -259.223C1189.79 -259.833 1190.57 -260.41 1191.42 -260.918C1191.96 -261.223 1192.53 -261.461 1193.14 -261.597C1193.75 -261.732 1194.4 -261.732 1195.01 -261.631C1195.41 -261.563 1195.79 -261.427 1196.16 -261.257C1196.53 -261.122 1196.87 -260.918 1197.21 -260.715C1197.55 -260.545 1197.89 -260.342 1198.19 -260.138C1198.53 -259.969 1198.84 -259.799 1199.14 -259.596C1199.48 -259.46 1199.78 -259.257 1200.09 -259.087C1200.43 -258.951 1200.73 -258.748 1201.04 -258.544C1201.51 -258.307 1201.99 -258.002 1202.43 -257.696C1202.9 -257.425 1203.31 -257.12 1203.75 -256.849C1204.19 -256.577 1204.6 -256.306 1205.04 -256.035C1205.34 -255.899 1205.65 -255.695 1205.92 -255.526C1206.39 -255.288 1206.83 -255.051 1207.31 -254.814C1207.64 -254.678 1207.98 -254.508 1208.32 -254.339C1208.9 -254.101 1209.44 -253.796 1209.95 -253.491C1210.8 -253.016 1211.57 -252.508 1212.32 -251.829C1212.96 -251.253 1213.44 -250.574 1213.84 -249.794C1214.96 -247.047 1214.62 -244.165 1214.62 -241.316C1214.69 -221.137 1214.59 -200.992 1214.69 -180.813C1214.76 -180.101 1214.86 -179.388 1215.03 -178.71C1215.3 -177.625 1216.18 -177.184 1217.1 -176.811C1217.64 -176.54 1218.18 -176.268 1218.76 -176.065C1220.32 -175.488 1221.88 -174.878 1223.4 -174.199C1223.98 -173.962 1224.52 -173.691 1225.09 -173.419C1225.47 -173.284 1225.84 -173.114 1226.21 -172.911C1226.79 -172.673 1227.33 -172.436 1227.91 -172.199C1228.85 -171.826 1229.84 -171.418 1230.79 -171.045C1231.36 -170.842 1231.94 -170.605 1232.51 -170.367C1233.63 -169.892 1234.78 -169.384 1235.94 -168.977C1236.55 -168.773 1237.12 -168.536 1237.7 -168.298C1238.88 -167.824 1240.07 -167.349 1241.29 -166.942C1241.93 -166.772 1242.58 -166.535 1243.22 -166.264C1250.4 -163.313 1257.62 -160.43 1264.7 -157.276C1265.31 -157.039 1265.92 -156.734 1266.53 -156.462C1267.14 -156.259 1267.72 -155.987 1268.33 -155.75C1268.94 -155.547 1269.51 -155.309 1270.12 -155.072C1271.88 -154.326 1273.65 -153.512 1275.48 -152.833C1276.12 -152.63 1276.73 -152.393 1277.34 -152.121C1280.66 -150.629 1284.08 -149.374 1287.44 -147.95C1288.11 -147.712 1288.72 -147.441 1289.37 -147.136C1291.57 -146.118 1293.5 -144.796 1294.79 -142.659C1295.2 -142.083 1295.5 -141.472 1295.81 -140.862C1296.48 -139.505 1297.13 -138.115 1297.67 -136.69C1297.91 -136.148 1298.08 -135.571 1298.28 -135.029C1298.45 -134.689 1298.55 -134.35 1298.65 -134.011C1298.85 -133.536 1299.02 -133.028 1299.26 -132.553C1299.43 -132.248 1299.57 -131.942 1299.74 -131.637C1299.97 -131.196 1300.21 -130.721 1300.48 -130.246C1300.68 -129.941 1300.85 -129.602 1301.02 -129.297C1301.33 -128.788 1301.57 -128.279 1301.77 -127.703C1302.28 -126.279 1302.45 -124.888 1301.57 -123.532C1301.23 -123.057 1300.79 -122.616 1300.31 -122.277C1300.04 -122.039 1299.7 -121.836 1299.4 -121.632C1299.13 -121.429 1298.82 -121.225 1298.52 -121.056C1298.38 -120.954 1298.21 -120.852 1298.08 -120.751C1297.84 -120.513 1297.53 -120.31 1297.3 -120.106C1297.19 -119.97 1297.06 -119.869 1296.92 -119.767C1296.72 -119.496 1296.45 -119.258 1296.21 -118.987C1296.11 -118.851 1295.97 -118.716 1295.87 -118.58C1295.67 -118.275 1295.47 -117.97 1295.23 -117.664C1295.13 -117.495 1295.03 -117.359 1294.92 -117.19C1294.72 -116.816 1294.52 -116.477 1294.28 -116.138C1293.13 -114.443 1292.25 -112.611 1291.81 -110.576C1291.64 -109.694 1291.5 -108.779 1291.43 -107.897C1290.93 -104.573 1291.47 -101.318 1292.15 -98.0958C1292.28 -97.2479 1292.42 -96.3661 1292.59 -95.5183C1292.72 -95.1452 1292.79 -94.7383 1292.86 -94.3314C1292.99 -93.7887 1293.13 -93.2122 1293.3 -92.6696C1293.43 -92.3304 1293.57 -91.9914 1293.67 -91.6522C1293.87 -91.1774 1294.08 -90.6685 1294.28 -90.1937C1294.48 -89.8885 1294.62 -89.5834 1294.79 -89.2782C1295.06 -88.8373 1295.33 -88.3963 1295.64 -87.9555C1295.97 -87.5146 1296.25 -87.0737 1296.55 -86.6328C1296.89 -86.1919 1297.19 -85.7172 1297.5 -85.2763C1297.94 -84.6659 1298.38 -84.0553 1298.89 -83.4788C1299.19 -83.2074 1299.43 -82.9022 1299.7 -82.597C1299.84 -82.4613 1299.97 -82.2917 1300.14 -82.156C1300.48 -81.8508 1300.75 -81.5457 1301.02 -81.2066C1303.26 -78.6969 1305.66 -76.3228 1308.17 -74.0844C1308.54 -73.847 1308.88 -73.5418 1309.22 -73.2366C1309.39 -73.1009 1309.56 -72.9653 1309.76 -72.8296C1310.14 -72.5922 1310.51 -72.287 1310.85 -72.0157C1311.59 -71.4731 1312.24 -70.7949 1312.98 -70.2523C1316.13 -68.6922 1319.12 -66.7252 1322.47 -65.5721C1330.43 -62.8251 1338.4 -61.4007 1346.39 -65.5382C1350.29 -67.573 1353.51 -66.4199 1357.03 -63.8425C1371.8 -53.0577 1386.91 -42.7817 1405.21 -38.6102C1411.99 -37.0502 1412.05 -37.0163 1414.8 -43.5279C1427.4 -73.2368 1439.13 -103.319 1451.9 -132.96C1453.56 -136.826 1453.29 -139.98 1450.51 -143.1C1442.04 -152.528 1432.42 -160.498 1421.34 -166.671C1411.51 -172.131 1402.03 -178.235 1390.74 -180.474C1386.61 -181.288 1382.48 -182.271 1378.34 -182.407C1372.48 -182.576 1368.45 -185.052 1365.67 -190.004C1365.16 -190.919 1364.38 -191.53 1363.64 -192.208C1361.64 -193.666 1360.18 -195.701 1358.32 -197.329C1357.98 -197.6 1357.71 -197.872 1357.44 -198.177C1357.3 -198.313 1357.17 -198.448 1357 -198.584C1356.69 -198.821 1356.42 -199.092 1356.15 -199.364C1356.01 -199.466 1355.88 -199.635 1355.74 -199.737C1355.44 -199.94 1355.17 -200.212 1354.9 -200.449C1354.35 -200.89 1353.81 -201.365 1353.24 -201.806C1352.93 -201.975 1352.66 -202.213 1352.39 -202.416C1352.25 -202.518 1352.12 -202.62 1351.98 -202.721C1351.68 -202.891 1351.44 -203.094 1351.17 -203.298C1350.86 -203.468 1350.59 -203.637 1350.32 -203.84C1349.88 -204.078 1349.47 -204.349 1349.03 -204.587C1348.73 -204.722 1348.42 -204.892 1348.15 -205.095C1347.85 -205.231 1347.54 -205.435 1347.24 -205.604C1347.07 -205.672 1346.93 -205.774 1346.76 -205.842C1346.26 -206.079 1345.71 -206.282 1345.21 -206.52C1344.46 -206.791 1343.71 -207.13 1343 -207.469C1342.46 -207.707 1341.95 -207.978 1341.41 -208.216C1341.07 -208.351 1340.73 -208.521 1340.39 -208.69C1339.89 -208.894 1339.41 -209.097 1338.9 -209.301C1338.4 -209.436 1337.89 -209.606 1337.34 -209.775C1336.8 -209.877 1336.26 -210.013 1335.72 -210.149C1334.97 -210.284 1334.19 -210.454 1333.45 -210.589C1332.84 -210.657 1332.23 -210.759 1331.62 -210.861C1330.36 -211.064 1329.11 -211.234 1327.86 -211.437C1327.21 -211.505 1326.57 -211.607 1325.96 -211.709C1324.91 -211.912 1323.83 -211.878 1322.74 -211.743C1321.83 -211.573 1320.91 -211.37 1320.03 -211.166C1305.09 -208.182 1297.87 -197.024 1301.26 -182.169C1302.18 -178.201 1303.6 -174.437 1305.33 -170.808C1307.12 -167.077 1306.44 -164.025 1303.6 -161.176C1302.04 -159.616 1300.45 -158.124 1298.85 -156.666C1294.69 -152.867 1290.32 -152.223 1284.96 -154.394C1265.99 -162.126 1247.12 -170.164 1228.14 -177.862C1225.94 -178.744 1224.01 -180.033 1222.21 -181.627C1220.62 -183.628 1220.62 -186.002 1220.62 -188.342C1220.55 -207.469 1220.62 -226.597 1220.59 -245.691C1220.59 -250.574 1222.38 -254.068 1226.62 -256.408C1230.28 -258.442 1233.33 -261.427 1237.36 -262.817C1241.05 -263.597 1242.75 -266.277 1244.07 -269.566C1249.52 -283.098 1254.64 -296.732 1260.6 -310.06C1261.75 -312.671 1262.91 -315.283 1264.63 -317.555C1265.21 -318.064 1265.89 -318.369 1266.63 -318.505C1271.51 -319.386 1275.41 -316.605 1279.68 -315.147C1280.08 -314.978 1280.46 -314.74 1280.83 -314.469C1281.17 -314.231 1281.51 -313.96 1281.81 -313.689C1281.98 -313.587 1282.12 -313.452 1282.29 -313.316C1282.63 -313.112 1282.93 -312.841 1283.2 -312.57C1283.54 -312.332 1283.81 -312.095 1284.12 -311.824C1284.45 -311.586 1284.76 -311.315 1285.03 -311.044C1285.2 -310.908 1285.34 -310.738 1285.47 -310.603C1285.78 -310.298 1286.05 -309.958 1286.32 -309.619C1286.45 -309.416 1286.56 -309.246 1286.66 -309.043C1286.86 -308.636 1287 -308.195 1287.1 -307.72C1287.1 -307.483 1287.1 -307.245 1287.1 -307.008C1287.03 -306.533 1286.89 -306.092 1286.66 -305.651C1280.59 -290.932 1274.32 -276.315 1268.53 -261.529C1267.82 -259.731 1265.96 -257.459 1267.34 -255.967C1268.94 -254.271 1271.51 -255.763 1273.44 -256.543C1282.86 -260.342 1289.13 -267.124 1292.04 -276.926C1292.76 -279.334 1293.06 -281.877 1295.33 -283.539C1296.25 -284.116 1297.33 -284.15 1298.31 -284.523C1299.94 -284.828 1301.53 -284.692 1303.12 -284.421C1304.38 -284.183 1305.63 -283.946 1306.92 -283.912C1308.68 -283.709 1310.48 -283.743 1312.2 -283.369C1313.39 -283.132 1314.61 -282.895 1315.83 -282.861C1317.05 -282.759 1318.27 -282.725 1319.49 -282.556C1320.2 -282.488 1320.88 -282.182 1321.59 -282.081C1322.94 -281.742 1324.33 -281.538 1325.72 -281.606C1327.15 -281.64 1328.57 -281.538 1329.99 -281.301C1330.47 -281.199 1330.91 -281.063 1331.35 -280.894C1332.91 -280.114 1334.57 -280.148 1336.23 -280.148C1337.48 -280.148 1338.73 -280.148 1339.99 -280.114C1341.55 -279.978 1343.14 -279.741 1344.7 -279.775C1356.35 -278.248 1368.01 -276.688 1379.66 -275.467C1381.7 -274.721 1383.8 -274.213 1385.97 -274.111C1388.24 -273.433 1390.57 -273.67 1392.88 -273.399C1393.35 -273.297 1393.86 -273.127 1394.33 -272.958C1395.93 -272.246 1397.59 -271.94 1399.35 -272.279C1400.09 -272.313 1400.84 -272.246 1401.55 -272.11C1403.41 -271.737 1405.21 -270.855 1407.18 -271.126C1407.65 -271.16 1408.16 -271.16 1408.63 -271.059C1410.26 -270.753 1411.78 -270.075 1413.51 -270.279C1414.26 -270.313 1414.97 -270.211 1415.68 -270.075C1417.27 -269.736 1418.83 -269.058 1420.53 -269.261C1421.24 -269.295 1421.95 -269.227 1422.66 -269.058C1424.01 -268.753 1425.34 -268.278 1426.76 -268.312C1427.47 -268.312 1428.18 -268.21 1428.86 -268.04C1430.45 -267.667 1431.98 -267.057 1433.67 -267.26C1434.38 -267.294 1435.09 -267.226 1435.81 -267.057C1437.4 -266.752 1438.89 -265.972 1440.58 -266.107C1441.06 -266.141 1441.53 -266.107 1441.97 -266.005C1443.53 -265.7 1445.02 -264.92 1446.68 -265.09C1447.16 -265.124 1447.6 -265.056 1448.07 -264.988C1449.39 -264.683 1450.71 -264.276 1452.1 -264.344C1453.05 -264.344 1453.97 -264.208 1454.88 -264.038C1456.2 -263.733 1457.52 -263.258 1458.91 -263.258C1459.62 -263.258 1460.3 -263.157 1460.98 -262.987C1462.3 -262.716 1463.52 -262.105 1464.88 -262.071C1465.32 -262.071 1465.72 -262.003 1466.16 -261.936C1467.11 -261.732 1468.03 -261.393 1469.01 -261.631C1469.31 -261.766 1469.62 -261.902 1469.92 -262.071C1470.16 -262.309 1470.4 -262.512 1470.64 -262.75C1470.81 -263.021 1470.98 -263.292 1471.14 -263.564C1471.35 -264.038 1471.52 -264.479 1471.69 -264.954C1471.79 -265.293 1471.92 -265.598 1472.06 -265.904C1472.26 -266.378 1472.5 -266.853 1472.7 -267.294C1472.84 -267.599 1472.97 -267.905 1473.14 -268.21C1473.35 -268.685 1473.62 -269.092 1473.79 -269.566C1473.89 -269.906 1474.02 -270.211 1474.16 -270.482C1474.33 -270.957 1474.5 -271.432 1474.67 -271.906C1474.77 -272.246 1474.91 -272.551 1475.04 -272.856C1475.21 -273.331 1475.45 -273.772 1475.68 -274.247C1475.82 -274.552 1475.96 -274.857 1476.13 -275.162C1476.33 -275.603 1476.63 -276.044 1476.84 -276.485C1476.94 -276.79 1477.11 -277.095 1477.28 -277.367C1477.48 -277.807 1477.72 -278.248 1477.89 -278.723C1477.99 -279.062 1478.12 -279.368 1478.26 -279.673C1478.43 -280.148 1478.6 -280.656 1478.77 -281.131C1478.87 -281.47 1478.97 -281.809 1479.11 -282.149C1479.31 -282.657 1479.55 -283.132 1479.72 -283.607C1479.82 -283.946 1479.95 -284.285 1480.12 -284.624C1480.33 -285.167 1480.53 -285.676 1480.73 -286.218C1480.83 -286.625 1481 -286.964 1481.17 -287.337C1481.44 -287.948 1481.78 -288.457 1482.16 -288.999C1482.46 -289.372 1482.8 -289.644 1483.17 -289.915C1484.09 -290.356 1484.97 -290.491 1485.88 -289.881C1488.66 -287.439 1488.15 -283.777 1489.37 -280.724C1489.54 -280.317 1489.68 -279.876 1489.75 -279.402C1489.85 -278.316 1490.12 -277.265 1490.46 -276.214C1490.59 -275.773 1490.66 -275.366 1490.73 -274.925C1491.37 -273.06 1491.64 -271.093 1492.39 -269.227C1492.56 -268.82 1492.69 -268.413 1492.76 -268.006C1492.86 -266.989 1493.13 -266.005 1493.51 -265.022C1493.68 -264.649 1493.78 -264.276 1493.88 -263.869C1494.08 -263.123 1494.32 -262.343 1494.52 -261.597C1494.73 -261.02 1494.86 -260.41 1494.96 -259.833C1495.07 -259.494 1495.17 -259.121 1495.23 -258.816C1495.23 -258.883 1495.37 -258.442 1495.4 -258.51C1495.4 -258.578 1495.64 -258.341 1495.64 -258.375C1495.64 -258.409 1495.84 -258.544 1495.84 -258.612C1495.91 -258.883 1495.98 -259.087 1496.08 -259.358C1496.15 -259.697 1496.25 -259.969 1496.35 -260.24C1496.52 -260.749 1496.66 -261.223 1496.83 -261.732C1496.89 -262.105 1497.03 -262.444 1497.17 -262.784C1497.4 -263.462 1497.67 -264.174 1497.88 -264.886C1497.95 -265.259 1498.08 -265.598 1498.22 -265.971C1498.45 -266.684 1498.69 -267.396 1498.89 -268.142C1498.96 -268.549 1499.1 -268.922 1499.23 -269.295C1499.54 -270.075 1499.88 -270.821 1500.11 -271.601C1500.28 -272.008 1500.52 -272.381 1500.79 -272.754C1502.52 -274.62 1503.98 -274.145 1505.3 -272.279C1505.53 -271.906 1505.7 -271.466 1505.81 -271.059C1505.87 -269.973 1506.11 -268.956 1506.65 -268.006C1506.79 -267.599 1506.86 -267.192 1506.92 -266.785C1507.06 -265.768 1507.43 -264.852 1507.74 -263.869C1507.87 -263.496 1507.97 -263.089 1508.01 -262.682C1508.11 -261.902 1508.38 -261.122 1508.62 -260.376C1508.79 -260.003 1508.86 -259.596 1508.92 -259.189C1509.06 -258.409 1509.43 -257.663 1509.67 -256.916C1509.8 -256.543 1509.91 -256.17 1510.01 -255.797C1510.18 -255.288 1510.35 -254.78 1510.65 -254.305C1510.92 -254.068 1511.16 -253.83 1511.4 -253.593C1511.87 -253.322 1512.34 -253.118 1512.89 -252.982C1513.29 -252.914 1513.63 -252.813 1514.01 -252.711C1514.95 -252.406 1515.9 -252.168 1516.92 -252.101C1517.56 -252.067 1518.17 -251.931 1518.78 -251.795C1520 -251.524 1521.15 -250.947 1522.44 -250.947C1522.88 -250.947 1523.29 -250.88 1523.7 -250.778C1524.71 -250.541 1525.66 -250.1 1526.71 -249.964C1527.12 -249.93 1527.52 -249.828 1527.93 -249.727C1528.91 -249.455 1529.9 -249.116 1530.91 -249.048C1531.56 -249.014 1532.17 -248.879 1532.78 -248.709C1533.79 -248.472 1534.74 -248.031 1535.79 -247.929C1536.23 -247.895 1536.64 -247.793 1537.04 -247.692C1538.03 -247.42 1538.98 -246.912 1540.03 -246.81C1540.43 -246.776 1540.84 -246.708 1541.25 -246.607C1542.2 -246.335 1543.14 -245.996 1544.16 -245.962C1544.77 -245.928 1545.38 -245.792 1545.96 -245.657C1546.94 -245.419 1547.85 -244.979 1548.87 -244.911C1549.28 -244.877 1549.68 -244.775 1550.06 -244.673C1551 -244.402 1551.92 -243.961 1552.94 -243.893C1553.34 -243.859 1553.75 -243.758 1554.12 -243.656C1555.07 -243.418 1555.98 -242.944 1557 -242.876C1557.41 -242.842 1557.81 -242.74 1558.19 -242.638C1559.14 -242.367 1560.05 -241.926 1561.1 -241.858C1561.51 -241.825 1561.91 -241.723 1562.32 -241.621C1563.34 -241.316 1564.32 -240.977 1565.37 -240.875C1565.84 -240.841 1566.25 -240.739 1566.69 -240.638C1567.84 -240.298 1569 -240.095 1570.18 -239.925C1606.44 -230.667 1641.88 -218.865 1676.94 -205.909C1683.08 -203.637 1689.17 -201.331 1695.38 -199.228C1697.61 -198.38 1699.81 -197.363 1701 -194.853Z" fill="#124838"/>
</g>
</g>
<g id="Frame 170">
<g id="Frame 168">
<g id="logo">
<path id="Vector_2" d="M143.958 39.9963C143.582 40.6743 143.248 41.3127 142.877 41.933C141.867 43.6137 140.613 45.1464 139.079 46.4953C137.133 48.2084 134.708 48.991 131.994 49.0379C130.654 49.0595 129.289 48.9657 127.969 48.7529C125.338 48.331 123.635 46.8703 122.62 44.7497C122.558 44.6163 122.488 44.4864 122.422 44.353C122.414 44.3386 122.402 44.3314 122.348 44.2773C122.241 44.4035 122.142 44.5225 122.043 44.6415C120.513 46.4844 118.987 48.3346 116.97 49.8133C115.523 50.8772 113.952 51.7211 112.009 51.8726C109.531 52.0637 107.242 51.7031 105.403 50.0874C104.145 48.9802 103.699 47.588 103.617 46.0805C103.431 42.7156 104.957 39.8773 107.192 37.2734C108.248 36.04 109.444 34.9003 110.492 33.6633C111.539 32.4262 112.302 31.045 112.459 29.4797C112.517 28.9135 112.492 28.322 112.364 27.7666C112.046 26.4034 110.982 25.7181 109.308 25.6712C107.23 25.6099 105.535 26.3817 104.046 27.5502C100.903 30.0279 98.7424 33.0898 97.0764 36.4655C96.0742 38.4924 95.8103 40.6166 95.5958 42.7697C95.3484 45.2366 95.2123 47.7143 94.5154 50.1306C94.4411 50.3795 94.3504 50.6283 94.2432 50.87C93.7895 51.9195 92.4658 52.4316 91.2657 52.0241C90.4533 51.75 90.1934 51.1477 90.0532 50.466C89.8594 49.5247 90.2264 48.6411 90.3996 47.7395C90.5275 47.0615 90.6924 46.3871 90.7873 45.6838C90.7048 45.7956 90.6306 45.9146 90.5398 46.0228C89.4965 47.2635 88.5438 48.569 87.3891 49.7231C86.1396 50.971 84.5601 51.7932 82.5352 51.6634C80.9599 51.5624 79.6979 51.09 78.9886 49.7195C78.0112 47.8297 77.5823 45.8677 77.6318 43.8048C77.6401 43.5127 77.504 43.2169 77.4339 42.9248C77.3638 42.9248 77.2978 42.9248 77.2277 42.9248C77.1782 43.0547 77.104 43.1845 77.0833 43.3179C76.8813 44.7677 76.5513 46.1887 75.8997 47.5412C74.6172 50.1919 72.5717 52.2404 69.5406 53.427C67.4374 54.2493 65.2558 54.3575 63.1319 53.4594C61.338 52.7021 60.3235 51.328 59.5894 49.7736C58.8141 48.129 58.542 46.3943 58.3894 44.6379C58.3811 44.5441 58.3894 44.4468 58.2821 44.3205C58.0883 44.6595 57.9027 45.0022 57.7007 45.334C56.5954 47.13 55.185 48.7133 53.3045 49.9431C51.4322 51.1693 49.3744 51.5516 47.0979 50.9601C44.5369 50.2965 43.2791 48.6844 42.776 46.5097C42.3471 44.6451 42.5038 42.7878 42.9038 40.9304C43.4441 38.4203 44.1699 35.9606 45.1349 33.5515C45.304 33.1295 45.3164 32.7148 44.9658 32.3758C44.6153 32.0367 44.1245 32.0656 43.6709 32.1702C42.941 32.3397 42.2358 32.5885 41.5017 32.722C40.4336 32.9203 39.349 32.9492 38.2891 32.6967C38.0293 33.6777 37.7984 34.6659 37.5014 35.6324C36.4704 38.9649 34.6765 42.0088 32.8166 45.0274C31.765 46.7333 30.5567 48.3526 29.0226 49.7519C27.7359 50.9241 26.2347 51.7752 24.247 51.6634C22.6304 51.5732 21.3396 51.1044 20.6138 49.6942C19.6405 47.8008 19.2157 45.8389 19.2694 43.7796C19.2776 43.4946 19.1291 43.2061 19.0549 42.9176C18.9848 42.9212 18.9147 42.9248 18.8446 42.9248C18.7992 43.0619 18.7332 43.1953 18.7126 43.336C18.4611 45.1645 17.995 46.9425 16.9723 48.569C15.4217 51.0467 13.2525 52.9473 10.0811 53.7552C7.71398 54.3575 5.4293 54.1663 3.47866 52.6949C2.20848 51.7355 1.44142 50.4733 0.94242 49.0956C-0.344259 45.5287 -0.278276 41.9475 0.925924 38.3734C2.19198 34.6154 4.43542 31.4092 7.96967 28.9387C10.8152 26.948 14.0731 26.0896 17.6816 26.2555C19.3642 26.3312 20.9726 26.7099 22.2964 27.6981C23.7769 28.8017 24.2058 30.2732 24.1109 31.8997C24.0862 32.3217 23.7769 32.52 23.2737 32.5272C22.7129 32.5344 22.35 32.3325 22.3005 31.9141C22.1025 30.3164 20.9891 29.844 19.4714 29.6925C16.7908 29.422 14.3742 30.1217 12.2009 31.4272C9.66875 32.9456 7.99029 35.1023 6.78197 37.5259C5.31383 40.4652 4.60863 43.556 4.60451 46.7658C4.60451 48.1434 5.01278 49.449 5.71386 50.6716C6.64587 52.2873 8.9388 52.8716 10.9719 52.0421C12.2297 51.5264 13.1741 50.6824 13.9948 49.7339C15.6856 47.7864 16.6754 45.5576 17.0259 43.1592C17.3187 41.1648 17.3847 39.1452 17.5455 37.1364C17.5662 36.8911 17.5414 36.6459 17.5744 36.4006C17.6528 35.8128 18.0033 35.4485 18.6631 35.3115C19.7601 35.0843 20.7952 35.2429 21.7272 35.8019C22.35 36.177 22.7005 36.6928 22.6469 37.378C22.5644 38.4239 22.4366 39.4734 22.4159 40.5193C22.3747 42.6363 22.3788 44.7569 23.084 46.8162C23.2078 47.1733 23.3645 47.5267 23.5624 47.8549C24.2841 49.0523 25.6533 49.4057 26.9853 48.7097C27.4431 48.4716 27.8885 48.1579 28.2307 47.8008C31.0392 44.8759 33.6084 41.8032 35.1054 38.1786C35.7611 36.5882 36.1199 34.9075 36.6189 33.2666C36.7426 32.8518 36.6107 32.5741 36.2148 32.2748C34.8209 31.2181 34.1363 29.7827 33.5713 28.2932C33.0228 26.847 32.7836 25.3827 33.1795 23.8788C33.3733 23.1359 33.7734 22.5228 34.726 22.3785C35.7034 22.227 36.421 22.6093 36.953 23.2909C37.72 24.2719 37.9716 25.4008 38.1242 26.5512C38.2767 27.7234 38.4005 28.9027 38.5448 30.0748C38.6149 30.6338 39.2211 31.0269 40.0583 31.081C41.2089 31.1531 42.2811 30.8899 43.3245 30.5112C45.737 29.6384 47.8485 28.3365 49.9228 26.9804C50.7971 26.407 51.7291 25.9814 52.8715 26.0355C53.7293 26.0752 54.22 26.4611 54.1375 27.2112C54.0757 27.7558 53.9396 28.3365 53.6468 28.8089C52.1787 31.1892 50.5621 33.5046 49.164 35.9137C47.7165 38.4022 46.8464 41.0566 47.0484 43.8986C47.0897 44.4684 47.2134 45.0454 47.4072 45.59C48.1207 47.5953 49.96 48.331 52.2323 47.7864C53.8654 47.3933 55.0489 46.4412 55.9603 45.2294C56.348 44.7136 56.682 44.1655 57.012 43.6173C57.9728 42.0304 58.7399 40.3966 59.2554 38.6295C60.3854 34.7633 62.7072 31.4958 66.3033 28.964C69.1529 26.9552 72.4274 26.086 76.0523 26.2519C77.7349 26.3276 79.3433 26.7063 80.6671 27.6909C82.1476 28.7945 82.5806 30.2623 82.4899 31.8889C82.4651 32.3144 82.1599 32.5164 81.6568 32.5236C81.096 32.5344 80.7289 32.3325 80.6753 31.9177C80.4815 30.3273 79.3845 29.8368 77.8504 29.6925C74.9141 29.4184 72.3036 30.2191 70.0231 31.7807C67.3796 33.5912 65.7012 36.0256 64.5836 38.7593C63.5485 41.2839 62.9917 43.895 62.9752 46.5854C62.967 48.01 63.3546 49.3552 64.0639 50.6247C64.9836 52.2693 67.2971 52.886 69.3385 52.0385C70.9922 51.3496 72.1181 50.1667 73.0666 48.8467C74.576 46.7441 75.343 44.4143 75.6069 41.9655C75.7802 40.3606 75.8585 38.7485 75.9121 37.1364C75.9616 35.5892 76.4194 35.1636 78.2092 35.2249C78.9886 35.2502 79.6938 35.4882 80.2918 35.9282C80.766 36.278 81.0588 36.718 81.0176 37.2842C80.9434 38.359 80.8155 39.4373 80.7867 40.5121C80.7372 42.5425 80.7578 44.5766 81.3723 46.5602C81.5084 47.0002 81.6939 47.4402 81.9331 47.8477C82.6466 49.0523 84.0281 49.4238 85.3478 48.7061C85.9499 48.3779 86.5355 47.9451 86.952 47.4474C88.5397 45.5576 90.0903 43.6425 91.5708 41.6878C91.8925 41.2658 91.8801 40.6419 91.9874 40.1081C92.4822 37.699 93.0266 35.297 93.4308 32.8771C93.6823 31.3876 93.7277 29.8692 93.8349 28.3617C93.8968 27.4889 94.5401 26.8434 95.4226 26.8325C96.0124 26.8253 96.3712 27.0309 96.4907 27.543C96.631 28.1345 96.7753 28.7368 96.7753 29.3355C96.7712 30.8899 96.6928 32.4443 96.6392 33.9987C96.6351 34.1357 96.6186 34.2728 96.6722 34.4243C97.031 33.7354 97.3898 33.043 97.7444 32.3541C99.295 29.3679 101.551 26.8686 104.582 24.9355C106.326 23.8247 108.273 23.3126 110.459 23.749C113.201 24.2972 114.669 25.9381 115.387 28.1742C116.203 30.7276 115.655 33.1548 114.183 35.4124C113.395 36.6206 112.451 37.7567 111.535 38.8963C110.141 40.6347 108.838 42.4127 108.129 44.4684C107.737 45.6045 107.786 46.7405 108.096 47.8802C108.607 49.7556 110.706 50.6392 112.644 50.127C113.449 49.9142 114.236 49.5644 114.933 49.1497C117.7 47.5015 119.795 45.2835 121.668 42.8924C121.791 42.7373 121.833 42.4848 121.8 42.2901C121.313 39.4553 121.911 36.8334 123.664 34.3918C125.07 32.4299 126.765 30.6699 128.414 28.8702C129.701 27.4673 130.984 26.0391 132.015 24.4919C133.627 22.0719 133.541 19.5402 131.998 17.0769C131.26 15.8976 130.056 15.2773 128.555 15.1763C127.746 15.1222 126.889 15.1402 126.105 15.3061C123.383 15.8759 121.8 18.4618 122.657 20.871C122.996 21.8159 123.354 22.7608 124.109 23.5434C124.377 23.8247 124.282 24.2286 123.961 24.5208C123.647 24.8057 123.33 24.8237 122.954 24.5929C121.952 23.9834 121.362 23.1106 120.905 22.1549C120.154 20.5824 119.915 18.9595 120.393 17.2933C121.094 14.8445 123.396 13.0845 126.464 12.7527C127.627 12.6265 128.847 12.6193 129.998 12.7852C132.312 13.1242 133.866 14.4333 134.761 16.2618C136.506 19.8287 136.345 23.3919 134.217 26.7893C132.889 28.9063 131.305 30.8971 129.845 32.9528C128.658 34.6298 127.429 36.2924 126.752 38.1967C125.952 40.4435 125.816 42.6904 126.86 44.9192C127.581 46.4628 128.748 47.1372 130.658 47.1949C134.724 47.3176 137.615 45.6477 139.632 42.6868C140.96 40.7393 141.764 38.5934 142.283 36.3934C142.877 33.9013 143.298 31.3768 143.793 28.8666C144.044 27.5899 144.255 26.306 144.956 25.1375C145.302 24.564 145.731 24.0591 146.432 23.7959C147.917 23.2368 149.41 23.9293 149.723 25.3611C150.036 26.8073 149.793 28.2283 149.36 29.6312C148.783 31.5066 147.731 33.2089 146.816 34.9616C146.399 35.7587 145.954 36.5485 145.488 37.3239C145.323 37.6016 145.36 37.8144 145.512 38.0777C146.976 40.6707 148.461 43.2566 149.871 45.8713C151.302 48.5185 151.892 51.3424 151.946 54.2529C151.979 55.9227 152.053 57.5961 151.657 59.2479C150.791 62.8833 148.502 65.736 145.244 68.019C141.364 70.7347 136.897 72.033 131.932 71.8491C127.717 71.694 124.08 70.3776 121.321 67.4636C120.175 66.2518 119.614 64.8488 119.416 63.3197C119.107 60.943 119.391 58.6456 120.542 56.4384C121.874 53.885 124.179 52.7129 127.301 52.6047C129.021 52.547 130.633 52.8391 132.126 53.629C133.528 54.3719 134.299 55.4575 134.468 56.8604C134.543 57.4699 134.547 58.1082 134.435 58.7105C134.027 60.9285 131.549 62.5984 128.967 62.4505C128.579 62.4289 128.241 62.3315 128.208 61.9203C128.179 61.5453 128.468 61.2748 129.004 61.2676C129.887 61.2567 130.637 60.9899 131.326 60.5282C132.732 59.5905 133.079 58.3282 132.819 56.8748C132.58 55.5368 131.557 54.848 130.192 54.444C129.223 54.1555 128.221 54.0798 127.214 54.1771C125.548 54.3394 124.328 55.0932 123.593 56.4168C122.377 58.6096 121.969 60.9033 122.571 63.3016C123.198 65.7793 124.901 67.496 127.466 68.6285C131.223 70.2911 137.611 70.035 141.178 67.5177C143.739 65.7108 145.376 63.381 146.37 60.6725C147.48 57.6538 148.02 54.5522 147.818 51.3929C147.62 48.2625 146.89 45.2005 145.661 42.2468C145.397 41.6084 144.923 41.035 144.514 40.4471C144.387 40.2812 144.164 40.1622 143.958 39.9963Z" fill="#FECF83"/>
<path id="Vector_3" d="M189.843 37.1618C190.569 36.3215 191.225 35.5353 191.913 34.7707C193.167 33.3821 194.355 31.9323 195.732 30.6412C197.353 29.1192 199.353 28.03 201.741 27.6693C204.417 27.269 206.945 27.5648 209.024 29.2779C210.789 30.7313 211.564 32.5707 211.655 34.6553C211.717 36.0979 211.531 37.5081 210.698 38.792C208.616 41.991 203.803 43.2209 200.157 41.0064C199.848 40.8189 199.568 40.5953 199.172 40.415C199.547 41.4428 199.881 42.4851 200.306 43.495C201.716 46.8563 203.572 50.0265 205.733 53.0704C207.745 55.9052 210.591 57.8888 213.902 59.4288C215.742 60.2871 217.639 61.0229 219.738 61.2068C221.107 61.3294 222.439 61.1022 223.701 60.6514C224.563 60.3449 225.004 59.6632 225.326 58.9347C225.454 58.6389 225.528 58.3252 225.652 58.0294C225.784 57.7193 226.279 57.4812 226.617 57.5606C227.017 57.6544 227.008 57.9465 226.996 58.2242C226.93 59.9012 225.804 61.5458 223.569 62.1157C221.656 62.6026 219.717 62.516 217.787 62.2455C212.917 61.5639 208.842 59.5153 205.308 56.5868C201.106 53.1065 198.021 48.9878 196.207 44.1694C195.411 42.0595 195.015 39.892 195.081 37.6668C195.093 37.252 195.163 36.8336 195.27 36.4297C195.378 36.0149 195.58 35.6146 196.145 35.5389C196.747 35.4595 197.242 35.6471 197.617 36.0727C197.988 36.4946 198.33 36.949 198.763 37.3133C200.71 38.9399 203.011 39.214 205.502 38.5215C206.512 38.2402 207.226 37.5982 207.589 36.7363C208.413 34.7887 208.145 32.9133 206.78 31.2326C205.312 29.4221 202.706 28.9028 200.17 29.8189C198.186 30.5366 196.648 31.77 195.254 33.1513C192.355 36.0222 190.28 39.3402 188.519 42.8169C187.447 44.934 186.49 47.0943 185.459 49.2294C185.171 49.8245 184.833 50.4015 184.47 50.9642C184.296 51.2347 184.041 51.4799 183.764 51.6747C183.183 52.0822 182.416 51.873 182.325 51.2383C182.23 50.5783 182.243 49.8858 182.346 49.2258C182.531 48.0428 182.816 46.8743 183.063 45.6986C183.076 45.6445 183.076 45.5868 183.092 45.4209C182.956 45.6012 182.886 45.6986 182.808 45.7923C181.748 47.0583 180.758 48.3746 179.608 49.5684C178.676 50.535 177.463 51.2383 175.978 51.4402C174.865 51.5917 173.751 51.5088 172.758 51.0291C172.279 50.7983 171.813 50.416 171.541 50.0048C170.254 48.0429 169.817 45.8933 169.863 43.65C169.867 43.3507 169.731 43.0441 169.656 42.7448C169.586 42.7484 169.516 42.752 169.442 42.7556C169.397 42.8927 169.331 43.0261 169.31 43.1668C169.058 44.9953 168.592 46.7733 167.57 48.3999C166.019 50.8776 163.85 52.7855 160.678 53.5861C158.019 54.2534 155.536 53.9396 153.548 52.075C152.422 51.0183 151.754 49.7307 151.334 48.3566C150.129 44.4327 150.451 40.5664 152.068 36.7759C153.412 33.6202 155.507 30.9261 158.526 28.8018C161.38 26.7966 164.65 25.9274 168.279 26.0933C169.962 26.169 171.57 26.5477 172.894 27.5359C174.374 28.6395 174.803 30.1074 174.712 31.7339C174.688 32.1595 174.378 32.3579 173.879 32.3651C173.318 32.3759 172.956 32.174 172.902 31.7556C172.704 30.1362 171.558 29.6926 170.077 29.5267C167.706 29.2635 165.532 29.8477 163.512 30.8648C160.971 32.1451 159.252 34.1107 157.944 36.3504C156.018 39.6432 155.177 43.1704 155.218 46.8599C155.235 48.1583 155.66 49.3953 156.34 50.5458C157.28 52.1363 159.569 52.7134 161.569 51.8802C163.223 51.1914 164.349 50.0084 165.297 48.6884C166.807 46.5858 167.57 44.256 167.838 41.8071C168.011 40.2022 168.089 38.59 168.143 36.9779C168.192 35.4451 168.634 35.0267 170.39 35.0664C171.19 35.0844 171.908 35.3225 172.523 35.7697C173.001 36.1159 173.29 36.5595 173.248 37.1258C173.17 38.2005 173.042 39.2753 173.017 40.3536C172.972 42.3841 172.989 44.4182 173.603 46.4019C173.739 46.8419 173.925 47.2819 174.164 47.6894C174.877 48.894 176.259 49.2619 177.579 48.5478C178.168 48.2304 178.704 47.7904 179.158 47.3251C181.059 45.3812 182.709 43.275 184.127 41.0461C184.56 40.3645 184.626 39.5061 184.861 38.7307C185.888 35.3225 186.915 31.9143 187.946 28.5097C188.049 28.1671 188.206 27.8352 188.321 27.5467C187.022 27.4277 185.736 27.3808 184.478 27.1861C178.713 26.2952 174.201 22.0828 173.483 16.9975C172.98 13.4342 173.525 10.0477 175.636 6.91716C176.91 5.02732 178.527 3.41157 180.927 2.61452C184.668 1.37026 188.268 1.70928 191.645 3.60272C192.8 4.25191 193.514 5.22929 193.856 6.37978C194.45 8.35257 194.4 10.3254 193.559 12.2368C192.194 15.3349 187.538 17.268 184 16.2401C180.672 15.2736 179.909 13.0339 180.849 10.3975C180.94 10.1414 181.063 9.86372 181.265 9.67258C181.459 9.48864 181.76 9.33717 182.041 9.29749C182.536 9.22897 182.742 9.45979 182.63 9.89618C182.536 10.2604 182.383 10.6139 182.28 10.9745C181.641 13.1926 183.059 14.8119 185.686 14.8732C189.357 14.9598 192.169 12.5542 192.21 9.33716C192.231 7.77552 191.856 6.36175 190.557 5.22568C188.969 3.83715 187.014 3.33584 184.824 3.47289C181.954 3.65322 179.888 5.0201 178.288 7.00011C176.733 8.92602 176.209 11.1404 176.065 13.445C175.867 16.6296 176.816 19.4969 179.232 21.9277C181.632 24.3405 184.664 25.5992 188.346 25.6352C188.915 25.6425 189.2 25.4838 189.418 24.9969C191.847 19.6664 194.627 14.4837 198.203 9.65454C200.067 7.13355 202.199 4.81814 204.929 2.97157C206.921 1.62632 209.11 0.66337 211.676 0.544354C212.488 0.504681 213.337 0.533535 214.125 0.688617C216.092 1.08173 217.152 2.45223 217.222 4.42863C217.301 6.72601 216.414 8.78175 215.226 10.7654C213.342 13.9139 210.64 16.4818 207.692 18.8765C204.434 21.5238 200.834 23.7274 196.804 25.3864C195.675 25.8516 194.561 26.3566 193.456 26.8651C193.258 26.9552 193.068 27.132 192.973 27.3087C191.361 30.3779 190.355 33.6021 189.823 36.9454C189.823 36.9707 189.831 37.014 189.843 37.1618ZM193.74 24.7913C193.955 24.7264 194.033 24.7084 194.107 24.6831C202.298 21.8772 208.521 17.0588 213.008 10.4913C213.94 9.12798 214.5 7.64929 214.467 6.02273C214.434 4.48633 213.383 3.72895 211.643 4.0319C211.465 4.06436 211.292 4.11125 211.119 4.15453C209.865 4.4683 208.756 5.00928 207.758 5.74502C205.844 7.16241 204.228 8.81782 202.78 10.5886C199.963 14.0437 197.584 17.726 195.46 21.5382C194.883 22.5769 194.347 23.6408 193.74 24.7913Z" fill="#FECF83"/>
</g>
</g>
</g>
</g>
</g>
</g>
</g>
<defs>
<clipPath id="clip0_0_1">
<rect width="1920" height="12217.3" fill="white" transform="translate(-219 -11751)"/>
</clipPath>
</defs>
</svg>
