<svg width="60" height="61" viewBox="0 0 60 61" fill="none" xmlns="http://www.w3.org/2000/svg">
<g opacity="0.7">
<path d="M30 3.87793C15.5039 3.87793 3.75 15.6318 3.75 30.1279C3.75 44.624 15.5039 56.3779 30 56.3779C44.4961 56.3779 56.25 44.624 56.25 30.1279C56.25 15.6318 44.4961 3.87793 30 3.87793Z" fill="#E2FFF6"/>
<path d="M30 3.87793C15.5039 3.87793 3.75 15.6318 3.75 30.1279C3.75 44.624 15.5039 56.3779 30 56.3779C44.4961 56.3779 56.25 44.624 56.25 30.1279C56.25 15.6318 44.4961 3.87793 30 3.87793ZM30 51.9248C17.9648 51.9248 8.20312 42.1631 8.20312 30.1279C8.20312 18.0928 17.9648 8.33105 30 8.33105C42.0352 8.33105 51.7969 18.0928 51.7969 30.1279C51.7969 42.1631 42.0352 51.9248 30 51.9248Z" fill="#124838"/>
<path d="M39.0645 29.7471L24.6504 19.3175C24.5803 19.2666 24.4976 19.2361 24.4113 19.2294C24.325 19.2227 24.2385 19.2401 24.1614 19.2795C24.0844 19.3189 24.0197 19.379 23.9747 19.4529C23.9297 19.5268 23.906 19.6118 23.9063 19.6983V22.4464C23.9063 23.044 24.1934 23.6124 24.6797 23.9639L33.1992 30.128L24.6797 36.2921C24.1934 36.6436 23.9063 37.2061 23.9063 37.8096V40.5577C23.9063 40.9385 24.3398 41.1612 24.6504 40.9385L39.0645 30.5089C39.3223 30.3214 39.3223 29.9346 39.0645 29.7471Z" fill="#124838"/>
</g>
</svg>
