<svg width="26" height="21" viewBox="0 0 26 21" fill="none" xmlns="http://www.w3.org/2000/svg">
<path d="M14.5813 0.993853C14.3809 1.19449 14.2684 1.46646 14.2684 1.75003C14.2684 2.0336 14.3809 2.30558 14.5813 2.50622L21.6723 9.5972L1.06991 9.5972C0.786108 9.5972 0.513931 9.70994 0.313253 9.91062C0.112577 10.1113 -0.000162125 10.3835 -0.000162125 10.6673C-0.000162125 10.9511 0.112577 11.2232 0.313253 11.4239C0.513931 11.6246 0.786108 11.7373 1.06991 11.7373L21.6723 11.7373L14.5813 18.8283C14.4404 18.9591 14.3375 19.1255 14.2832 19.3099C14.229 19.4943 14.2255 19.6899 14.2731 19.8761C14.3207 20.0624 14.4177 20.2323 14.5538 20.3681C14.6899 20.5038 14.8601 20.6003 15.0464 20.6474C15.2324 20.6951 15.4279 20.6918 15.6122 20.6378C15.7964 20.5838 15.9628 20.4812 16.0937 20.3407L25.0109 11.4235C25.2113 11.2228 25.3239 10.9508 25.3239 10.6673C25.3239 10.3837 25.2113 10.1117 25.0109 9.91109L16.0937 0.993853C15.893 0.793463 15.6211 0.680908 15.3375 0.680908C15.0539 0.680908 14.7819 0.793463 14.5813 0.993853Z" fill="white"/>
</svg>
