<svg width="50" height="51" viewBox="0 0 50 51" fill="none" xmlns="http://www.w3.org/2000/svg">
<circle cx="25" cy="25.2256" r="25" fill="#124838"/>
<path d="M26.2575 15.4409C26.0571 15.6415 25.9445 15.9135 25.9445 16.1971C25.9445 16.4806 26.0571 16.7526 26.2575 16.9532L33.3484 24.0442L12.7461 24.0442C12.4623 24.0442 12.1901 24.157 11.9894 24.3576C11.7887 24.5583 11.676 24.8305 11.676 25.1143C11.676 25.3981 11.7887 25.6703 11.9894 25.8709C12.1901 26.0716 12.4623 26.1844 12.7461 26.1844L33.3484 26.1844L26.2575 33.2754C26.1166 33.4061 26.0136 33.5725 25.9594 33.7569C25.9052 33.9413 25.9017 34.1369 25.9493 34.3232C25.9969 34.5094 26.0939 34.6793 26.2299 34.8151C26.366 34.9508 26.5362 35.0473 26.7226 35.0945C26.9086 35.1421 27.104 35.1388 27.2883 35.0848C27.4726 35.0309 27.6389 34.9282 27.7698 34.7877L36.6871 25.8705C36.8874 25.6698 37 25.3979 37 25.1143C37 24.8307 36.8874 24.5588 36.6871 24.3581L27.7698 15.4409C27.5692 15.2405 27.2972 15.1279 27.0136 15.1279C26.7301 15.1279 26.4581 15.2405 26.2575 15.4409Z" fill="white"/>
</svg>
