<svg width="21" height="22" viewBox="0 0 21 22" fill="none" xmlns="http://www.w3.org/2000/svg">
<path d="M18.6667 0.866211H2.33333C1.05 0.866211 0 1.91621 0 3.19954V19.5329C0 20.8174 1.05 21.8662 2.33333 21.8662H10.5V13.6995H8.16667V10.812H10.5V8.42038C10.5 5.89571 11.914 4.12238 14.8937 4.12238L16.9972 4.12471V7.16388H15.6007C14.441 7.16388 14 8.03421 14 8.84154V10.8132H16.996L16.3333 13.6995H14V21.8662H18.6667C19.95 21.8662 21 20.8174 21 19.5329V3.19954C21 1.91621 19.95 0.866211 18.6667 0.866211Z" fill="white"/>
</svg>
