<svg width="21" height="22" viewBox="0 0 21 22" fill="none" xmlns="http://www.w3.org/2000/svg">
<path d="M10.4998 7.86816C9.5715 7.86816 8.68126 8.23691 8.02488 8.89329C7.3685 9.54967 6.99976 10.4399 6.99976 11.3682C6.99976 12.2964 7.3685 13.1867 8.02488 13.843C8.68126 14.4994 9.5715 14.8682 10.4998 14.8682C11.428 14.8682 12.3183 14.4994 12.9746 13.843C13.631 13.1867 13.9998 12.2964 13.9998 11.3682C13.9998 10.4399 13.631 9.54967 12.9746 8.89329C12.3183 8.23691 11.428 7.86816 10.4998 7.86816Z" fill="white"/>
<path fill-rule="evenodd" clip-rule="evenodd" d="M6.3 0.866211C4.62914 0.866211 3.02671 1.52996 1.84523 2.71144C0.663748 3.89292 0 5.49535 0 7.16621L0 15.5662C0 17.2371 0.663748 18.8395 1.84523 20.021C3.02671 21.2025 4.62914 21.8662 6.3 21.8662H14.7C16.3709 21.8662 17.9733 21.2025 19.1548 20.021C20.3363 18.8395 21 17.2371 21 15.5662V7.16621C21 5.49535 20.3363 3.89292 19.1548 2.71144C17.9733 1.52996 16.3709 0.866211 14.7 0.866211L6.3 0.866211ZM5.6 11.3662C5.6 10.0667 6.11625 8.82032 7.03518 7.90139C7.95411 6.98246 9.20044 6.46621 10.5 6.46621C11.7996 6.46621 13.0459 6.98246 13.9648 7.90139C14.8838 8.82032 15.4 10.0667 15.4 11.3662C15.4 12.6658 14.8838 13.9121 13.9648 14.831C13.0459 15.75 11.7996 16.2662 10.5 16.2662C9.20044 16.2662 7.95411 15.75 7.03518 14.831C6.11625 13.9121 5.6 12.6658 5.6 11.3662ZM15.4 6.46621H16.8V5.06621H15.4V6.46621Z" fill="white"/>
</svg>
