<svg width="22" height="22" viewBox="0 0 22 22" fill="none" xmlns="http://www.w3.org/2000/svg">
<path d="M18.8571 0.866211H2.26286C1.01357 0.866211 0 1.87402 0 3.11621V19.6162C0 20.8584 1.01357 21.8662 2.26286 21.8662H18.8571C20.1064 21.8662 21.12 20.8584 21.12 19.6162V3.11621C21.12 1.87402 20.1064 0.866211 18.8571 0.866211ZM16.5519 8.30996C16.5613 8.44121 16.5613 8.57715 16.5613 8.7084C16.5613 12.7725 13.4499 17.4553 7.76443 17.4553C6.01071 17.4553 4.38429 16.949 3.01714 16.0771C3.267 16.1053 3.50743 16.1146 3.762 16.1146C5.20929 16.1146 6.53871 15.6271 7.59943 14.8021C6.24171 14.774 5.10086 13.8881 4.70957 12.6693C5.18571 12.7396 5.61471 12.7396 6.105 12.6131C4.69071 12.3271 3.63 11.0896 3.63 9.59434V9.55684C4.04014 9.78652 4.521 9.92715 5.02543 9.9459C4.60134 9.66541 4.25369 9.2849 4.01349 8.83832C3.77329 8.39173 3.64802 7.89296 3.64886 7.38652C3.64886 6.81465 3.79971 6.28965 4.06843 5.83496C5.59114 7.70059 7.87757 8.91934 10.4421 9.05059C10.0037 6.96465 11.5736 5.27246 13.4593 5.27246C14.3503 5.27246 15.1517 5.64277 15.7174 6.24277C16.4151 6.11152 17.0846 5.85371 17.6786 5.50215C17.4476 6.21465 16.962 6.81465 16.3209 7.19434C16.9431 7.12871 17.5466 6.95527 18.1029 6.71621C17.6833 7.33027 17.1553 7.87402 16.5519 8.30996Z" fill="white"/>
</svg>
