<svg width="25" height="22" viewBox="0 0 25 22" fill="none" xmlns="http://www.w3.org/2000/svg">
<path d="M24.4914 4.07893C24.3491 3.46264 24.0711 2.9006 23.685 2.44876C23.2988 1.99691 22.818 1.67102 22.2905 1.50351C20.3344 0.87643 12.5087 0.866222 12.5087 0.866222C12.5087 0.866222 4.68419 0.856013 2.72682 1.45539C2.1996 1.6306 1.71981 1.9611 1.33352 2.41517C0.947219 2.86923 0.667387 3.43161 0.520884 4.04831C0.00499852 6.33206 1.83014e-06 11.0687 1.83014e-06 11.0687C1.83014e-06 11.0687 -0.00499461 15.8287 0.507143 18.0891C0.79444 19.3389 1.63759 20.3262 2.70934 20.6631C4.68544 21.2902 12.4899 21.3004 12.4899 21.3004C12.4899 21.3004 20.3156 21.3106 22.2717 20.7127C22.7995 20.5455 23.2807 20.2203 23.6678 19.7694C24.0549 19.3185 24.3345 18.7574 24.4789 18.1416C24.9961 15.8593 24.9998 11.1241 24.9998 11.1241C24.9998 11.1241 25.0248 6.36268 24.4914 4.07893ZM10.0054 15.4568L10.0117 6.70685L16.5158 11.0891L10.0054 15.4568Z" fill="white"/>
</svg>
